<?xml version="1.0" encoding="UTF-8" standalone="no"?>
<!DOCTYPE svg PUBLIC "-//W3C//DTD SVG 1.1//EN"
 "http://www.w3.org/Graphics/SVG/1.1/DTD/svg11.dtd">
<!-- Generated by graphviz version 14.0.2 (20251019.1705)
 -->
<!-- Title: G Pages: 1 -->
<svg width="814pt" height="532pt"
 viewBox="0.00 0.00 814.00 532.00" xmlns="http://www.w3.org/2000/svg" xmlns:xlink="http://www.w3.org/1999/xlink">
<g id="graph0" class="graph" transform="scale(1 1) rotate(0) translate(4 527.53)">
<title>G</title><style>.edge>path:hover{stroke-width:8}</style>
<polygon fill="white" stroke="none" points="-4,4 -4,-527.53 809.84,-527.53 809.84,4 -4,4"/>
<!-- django -->
<g id="node1" class="node">
<title>django</title><style>.edge>path:hover{stroke-width:8}</style>
<polygon fill="blue" stroke="black" points="708.93,-523.53 705.93,-527.53 684.93,-527.53 681.93,-523.53 654.93,-523.53 654.93,-487.53 708.93,-487.53 708.93,-523.53"/>
<text xml:space="preserve" text-anchor="middle" x="681.93" y="-502.03" font-family="Helvetica,sans-Serif" font-size="10.00" fill="white">django</text>
</g>
<!-- recruitment_admin -->
<g id="node5" class="node">
<title>recruitment_admin</title><style>.edge>path:hover{stroke-width:8}</style>
<ellipse fill="#7e3d8f" stroke="black" cx="63.93" cy="-185.14" rx="47.91" ry="22.63"/>
<text xml:space="preserve" text-anchor="middle" x="63.93" y="-187.64" font-family="Helvetica,sans-Serif" font-size="10.00" fill="#ffffff">recruitment.</text>
<text xml:space="preserve" text-anchor="middle" x="63.93" y="-175.64" font-family="Helvetica,sans-Serif" font-size="10.00" fill="#ffffff">admin</text>
</g>
<!-- django&#45;&gt;recruitment_admin -->
<g id="edge1" class="edge">
<title>django&#45;&gt;recruitment_admin</title><style>.edge>path:hover{stroke-width:8}</style>
<path fill="none" stroke="black" d="M63.93,-265.39C50.78,-254.46 50.4,-235.46 53.49,-218.8"/>
<polygon fill="blue" stroke="black" points="56.86,-219.78 55.73,-209.24 50.04,-218.18 56.86,-219.78"/>
</g>
<!-- recruitment_apps -->
<g id="node6" class="node">
<title>recruitment_apps</title><style>.edge>path:hover{stroke-width:8}</style>
<ellipse fill="#9849ac" stroke="black" cx="681.93" cy="-428.9" rx="47.91" ry="22.63"/>
<text xml:space="preserve" text-anchor="middle" x="681.93" y="-431.4" font-family="Helvetica,sans-Serif" font-size="10.00" fill="#ffffff">recruitment.</text>
<text xml:space="preserve" text-anchor="middle" x="681.93" y="-419.4" font-family="Helvetica,sans-Serif" font-size="10.00" fill="#ffffff">apps</text>
</g>
<!-- django&#45;&gt;recruitment_apps -->
<g id="edge2" class="edge">
<title>django&#45;&gt;recruitment_apps</title><style>.edge>path:hover{stroke-width:8}</style>
<path fill="none" stroke="black" d="M681.93,-487.22C681.93,-480.08 681.93,-471.55 681.93,-463.28"/>
<polygon fill="blue" stroke="black" points="685.43,-463.45 681.93,-453.45 678.43,-463.45 685.43,-463.45"/>
</g>
<!-- recruitment_forms -->
<g id="node8" class="node">
<title>recruitment_forms</title><style>.edge>path:hover{stroke-width:8}</style>
<ellipse fill="#853399" stroke="black" cx="377.93" cy="-185.14" rx="47.91" ry="22.63"/>
<text xml:space="preserve" text-anchor="middle" x="377.93" y="-187.64" font-family="Helvetica,sans-Serif" font-size="10.00" fill="#ffffff">recruitment.</text>
<text xml:space="preserve" text-anchor="middle" x="377.93" y="-175.64" font-family="Helvetica,sans-Serif" font-size="10.00" fill="#ffffff">forms</text>
</g>
<!-- django&#45;&gt;recruitment_forms -->
<g id="edge3" class="edge">
<title>django&#45;&gt;recruitment_forms</title><style>.edge>path:hover{stroke-width:8}</style>
<path fill="none" stroke="black" d="M377.93,-346.65C355.7,-335.89 364.26,-263.08 371.62,-219.31"/>
<polygon fill="blue" stroke="black" points="375.05,-220.01 373.33,-209.56 368.16,-218.8 375.05,-220.01"/>
</g>
<!-- recruitment_models -->
<g id="node9" class="node">
<title>recruitment_models</title><style>.edge>path:hover{stroke-width:8}</style>
<ellipse fill="#9714b8" stroke="black" cx="301.93" cy="-266.39" rx="47.91" ry="22.63"/>
<text xml:space="preserve" text-anchor="middle" x="301.93" y="-268.89" font-family="Helvetica,sans-Serif" font-size="10.00" fill="#ffffff">recruitment.</text>
<text xml:space="preserve" text-anchor="middle" x="301.93" y="-256.89" font-family="Helvetica,sans-Serif" font-size="10.00" fill="#ffffff">models</text>
</g>
<!-- django&#45;&gt;recruitment_models -->
<g id="edge4" class="edge">
<title>django&#45;&gt;recruitment_models</title><style>.edge>path:hover{stroke-width:8}</style>
<path fill="none" stroke="black" d="M377.93,-346.65C355.14,-335.62 335.53,-314.7 321.95,-297.12"/>
<polygon fill="blue" stroke="black" points="325.08,-295.46 316.31,-289.51 319.46,-299.63 325.08,-295.46"/>
</g>
<!-- recruitment_tests -->
<g id="node10" class="node">
<title>recruitment_tests</title><style>.edge>path:hover{stroke-width:8}</style>
<ellipse fill="#9849ac" stroke="black" cx="757.93" cy="-347.65" rx="47.91" ry="22.63"/>
<text xml:space="preserve" text-anchor="middle" x="757.93" y="-350.15" font-family="Helvetica,sans-Serif" font-size="10.00" fill="#ffffff">recruitment.</text>
<text xml:space="preserve" text-anchor="middle" x="757.93" y="-338.15" font-family="Helvetica,sans-Serif" font-size="10.00" fill="#ffffff">tests</text>
</g>
<!-- django&#45;&gt;recruitment_tests -->
<g id="edge5" class="edge">
<title>django&#45;&gt;recruitment_tests</title><style>.edge>path:hover{stroke-width:8}</style>
<path fill="none" stroke="black" d="M707.08,-487.11C718.55,-477.86 731.26,-465.51 738.93,-451.53 750.68,-430.14 755.33,-402.85 757.1,-381.76"/>
<polygon fill="blue" stroke="black" points="760.58,-382.17 757.73,-371.96 753.59,-381.72 760.58,-382.17"/>
</g>
<!-- recruitment_urls -->
<g id="node11" class="node">
<title>recruitment_urls</title><style>.edge>path:hover{stroke-width:8}</style>
<ellipse fill="#8b439d" stroke="black" cx="182.93" cy="-22.63" rx="47.91" ry="22.63"/>
<text xml:space="preserve" text-anchor="middle" x="182.93" y="-25.13" font-family="Helvetica,sans-Serif" font-size="10.00" fill="#ffffff">recruitment.</text>
<text xml:space="preserve" text-anchor="middle" x="182.93" y="-13.13" font-family="Helvetica,sans-Serif" font-size="10.00" fill="#ffffff">urls</text>
</g>
<!-- django&#45;&gt;recruitment_urls -->
<g id="edge6" class="edge">
<title>django&#45;&gt;recruitment_urls</title><style>.edge>path:hover{stroke-width:8}</style>
<path fill="none" stroke="black" d="M377.93,-346.65C247.93,-284.87 174.64,-359.37 63.93,-267.39"/>
<path fill="none" stroke="black" d="M605.93,-427.9C538.12,-372.77 498.55,-404.03 417.93,-370.27 399.29,-362.47 396.19,-357.32 377.93,-348.65"/>
<path fill="none" stroke="black" d="M662.21,-487.09C651.02,-476.97 636.9,-463.83 624.93,-451.53 616.02,-442.36 615.86,-437.97 605.93,-429.9"/>
<path fill="none" stroke="black" d="M63.93,-265.39C23.73,-231.99 -15.87,-209.55 6.93,-162.51 34.07,-106.53 95.92,-66.32 138.56,-44"/>
<polygon fill="blue" stroke="black" points="140.02,-47.19 147.34,-39.54 136.84,-40.95 140.02,-47.19"/>
</g>
<!-- recruitment_views -->
<g id="node13" class="node">
<title>recruitment_views</title><style>.edge>path:hover{stroke-width:8}</style>
<ellipse fill="#632673" stroke="black" cx="415.93" cy="-103.88" rx="47.91" ry="22.63"/>
<text xml:space="preserve" text-anchor="middle" x="415.93" y="-106.38" font-family="Helvetica,sans-Serif" font-size="10.00" fill="#ffffff">recruitment.</text>
<text xml:space="preserve" text-anchor="middle" x="415.93" y="-94.38" font-family="Helvetica,sans-Serif" font-size="10.00" fill="#ffffff">views</text>
</g>
<!-- django&#45;&gt;recruitment_views -->
<g id="edge7" class="edge">
<title>django&#45;&gt;recruitment_views</title><style>.edge>path:hover{stroke-width:8}</style>
<path fill="none" stroke="black" d="M605.93,-427.9C551.57,-381.71 592.07,-337.37 605.93,-267.39"/>
</g>
<!-- docx -->
<g id="node2" class="node">
<title>docx</title><style>.edge>path:hover{stroke-width:8}</style>
<polygon fill="#aecc33" stroke="black" points="565.93,-365.65 562.93,-369.65 541.93,-369.65 538.93,-365.65 511.93,-365.65 511.93,-329.65 565.93,-329.65 565.93,-365.65"/>
<text xml:space="preserve" text-anchor="middle" x="538.93" y="-344.15" font-family="Helvetica,sans-Serif" font-size="10.00" fill="#000000">docx</text>
</g>
<!-- recruitment_utils -->
<g id="node12" class="node">
<title>recruitment_utils</title><style>.edge>path:hover{stroke-width:8}</style>
<ellipse fill="#9f3db8" stroke="black" cx="529.93" cy="-185.14" rx="47.91" ry="22.63"/>
<text xml:space="preserve" text-anchor="middle" x="529.93" y="-187.64" font-family="Helvetica,sans-Serif" font-size="10.00" fill="#ffffff">recruitment.</text>
<text xml:space="preserve" text-anchor="middle" x="529.93" y="-175.64" font-family="Helvetica,sans-Serif" font-size="10.00" fill="#ffffff">utils</text>
</g>
<!-- docx&#45;&gt;recruitment_utils -->
<g id="edge8" class="edge">
<title>docx&#45;&gt;recruitment_utils</title><style>.edge>path:hover{stroke-width:8}</style>
<path fill="none" stroke="black" d="M529.59,-329.31C524.13,-318.16 517.76,-303.15 514.93,-289.02 510.27,-265.68 514.39,-239.09 519.48,-218.79"/>
<polygon fill="#aecc33" stroke="black" points="522.79,-219.96 522.05,-209.39 516.04,-218.11 522.79,-219.96"/>
</g>
<!-- docx&#45;&gt;recruitment_views -->
<g id="edge9" class="edge">
<title>docx&#45;&gt;recruitment_views</title><style>.edge>path:hover{stroke-width:8}</style>
<path fill="none" stroke="black" d="M605.93,-265.39C612.78,-230.84 620.3,-218.3 605.93,-186.14"/>
<path fill="none" stroke="black" d="M562.94,-329.32C580.04,-315.04 600.86,-293.02 605.93,-267.39"/>
</g>
<!-- fitz -->
<g id="node3" class="node">
<title>fitz</title><style>.edge>path:hover{stroke-width:8}</style>
<polygon fill="#47c278" stroke="black" points="480.93,-365.65 477.93,-369.65 456.93,-369.65 453.93,-365.65 426.93,-365.65 426.93,-329.65 480.93,-329.65 480.93,-365.65"/>
<text xml:space="preserve" text-anchor="middle" x="453.93" y="-344.15" font-family="Helvetica,sans-Serif" font-size="10.00" fill="#000000">fitz</text>
</g>
<!-- fitz&#45;&gt;recruitment_utils -->
<g id="edge10" class="edge">
<title>fitz&#45;&gt;recruitment_utils</title><style>.edge>path:hover{stroke-width:8}</style>
<path fill="none" stroke="black" d="M453.93,-265.39C458.94,-242.89 476.17,-223.96 492.96,-210.25"/>
<polygon fill="#47c278" stroke="black" points="494.65,-213.37 500.44,-204.49 490.38,-207.82 494.65,-213.37"/>
</g>
<!-- fitz&#45;&gt;recruitment_views -->
<g id="edge11" class="edge">
<title>fitz&#45;&gt;recruitment_views</title><style>.edge>path:hover{stroke-width:8}</style>
<path fill="none" stroke="black" d="M451.8,-329.41C450.3,-313.19 449.28,-288.35 453.93,-267.39"/>
<path fill="none" stroke="black" d="M453.93,-265.39C463.93,-220.44 446.37,-168.62 431.93,-136.3"/>
<polygon fill="#47c278" stroke="black" points="435.23,-135.09 427.84,-127.5 428.88,-138.05 435.23,-135.09"/>
</g>
<!-- groq -->
<g id="node4" class="node">
<title>groq</title><style>.edge>path:hover{stroke-width:8}</style>
<polygon fill="#4073c0" stroke="black" points="577.93,-284.39 574.93,-288.39 553.93,-288.39 550.93,-284.39 523.93,-284.39 523.93,-248.39 577.93,-248.39 577.93,-284.39"/>
<text xml:space="preserve" text-anchor="middle" x="550.93" y="-262.89" font-family="Helvetica,sans-Serif" font-size="10.00" fill="#ffffff">groq</text>
</g>
<!-- groq&#45;&gt;recruitment_views -->
<g id="edge12" class="edge">
<title>groq&#45;&gt;recruitment_views</title><style>.edge>path:hover{stroke-width:8}</style>
<path fill="none" stroke="black" d="M576.31,-247.98C595.26,-232.65 616.25,-209.23 605.93,-186.14"/>
<path fill="none" stroke="black" d="M605.93,-184.14C583.98,-135 522.11,-116.25 474.89,-109.13"/>
<polygon fill="#4073c0" stroke="black" points="475.41,-105.67 465.03,-107.8 474.47,-112.61 475.41,-105.67"/>
</g>
<!-- recruitment_context_processors -->
<g id="node7" class="node">
<title>recruitment_context_processors</title><style>.edge>path:hover{stroke-width:8}</style>
<ellipse fill="#9e4cb3" stroke="black" cx="201.93" cy="-185.14" rx="71.77" ry="22.63"/>
<text xml:space="preserve" text-anchor="middle" x="201.93" y="-187.64" font-family="Helvetica,sans-Serif" font-size="10.00" fill="#ffffff">recruitment.</text>
<text xml:space="preserve" text-anchor="middle" x="201.93" y="-175.64" font-family="Helvetica,sans-Serif" font-size="10.00" fill="#ffffff">context_processors</text>
</g>
<!-- recruitment_forms&#45;&gt;recruitment_views -->
<g id="edge13" class="edge">
<title>recruitment_forms&#45;&gt;recruitment_views</title><style>.edge>path:hover{stroke-width:8}</style>
<path fill="none" stroke="black" d="M388.12,-162.9C391.96,-154.88 396.43,-145.57 400.64,-136.79"/>
<polygon fill="#853399" stroke="black" points="403.77,-138.35 404.94,-127.82 397.46,-135.32 403.77,-138.35"/>
</g>
<!-- recruitment_models&#45;&gt;recruitment_admin -->
<g id="edge14" class="edge">
<title>recruitment_models&#45;&gt;recruitment_admin</title><style>.edge>path:hover{stroke-width:8}</style>
<path fill="none" stroke="black" d="M262.18,-253.42C225.37,-242.17 169.2,-224.59 120.93,-207.76 117.69,-206.63 114.35,-205.44 111,-204.22"/>
<polygon fill="#9714b8" stroke="black" points="112.33,-200.98 101.74,-200.8 109.9,-207.55 112.33,-200.98"/>
</g>
<!-- recruitment_models&#45;&gt;recruitment_context_processors -->
<g id="edge15" class="edge">
<title>recruitment_models&#45;&gt;recruitment_context_processors</title><style>.edge>path:hover{stroke-width:8}</style>
<path fill="none" stroke="black" d="M277.98,-246.41C265.56,-236.57 250.17,-224.37 236.49,-213.52"/>
<polygon fill="#9714b8" stroke="black" points="238.99,-211.04 228.98,-207.57 234.64,-216.53 238.99,-211.04"/>
</g>
<!-- recruitment_models&#45;&gt;recruitment_forms -->
<g id="edge16" class="edge">
<title>recruitment_models&#45;&gt;recruitment_forms</title><style>.edge>path:hover{stroke-width:8}</style>
<path fill="none" stroke="black" d="M321.11,-245.39C330.11,-236.01 341,-224.65 350.82,-214.41"/>
<polygon fill="#9714b8" stroke="black" points="353.32,-216.86 357.71,-207.22 348.27,-212.02 353.32,-216.86"/>
</g>
<!-- recruitment_models&#45;&gt;recruitment_views -->
<g id="edge17" class="edge">
<title>recruitment_models&#45;&gt;recruitment_views</title><style>.edge>path:hover{stroke-width:8}</style>
<path fill="none" stroke="black" d="M300.98,-243.35C301.09,-221.06 304.32,-186.58 320.93,-162.51 332.66,-145.52 351.18,-132.67 368.76,-123.46"/>
<polygon fill="#9714b8" stroke="black" points="370.16,-126.67 377.59,-119.12 367.08,-120.39 370.16,-126.67"/>
</g>
<!-- recruitment_utils&#45;&gt;recruitment_views -->
<g id="edge18" class="edge">
<title>recruitment_utils&#45;&gt;recruitment_views</title><style>.edge>path:hover{stroke-width:8}</style>
<path fill="none" stroke="black" d="M503.78,-165.95C488.25,-155.16 468.35,-141.32 451.42,-129.55"/>
<polygon fill="#9f3db8" stroke="black" points="453.81,-126.95 443.6,-124.12 449.82,-132.7 453.81,-126.95"/>
</g>
<!-- recruitment_views&#45;&gt;recruitment_urls -->
<g id="edge19" class="edge">
<title>recruitment_views&#45;&gt;recruitment_urls</title><style>.edge>path:hover{stroke-width:8}</style>
<path fill="none" stroke="black" d="M377.72,-89.88C337.93,-76.35 275.47,-55.1 232.05,-40.33"/>
<polygon fill="#632673" stroke="black" points="233.2,-37.03 222.6,-37.12 230.94,-43.65 233.2,-37.03"/>
</g>
</g>
</svg>
